<?xml version="1.0" encoding="UTF-8" standalone="no"?>
<!DOCTYPE svg PUBLIC "-//W3C//DTD SVG 1.1//EN" "http://www.w3.org/Graphics/SVG/1.1/DTD/svg11.dtd">
<svg width="100%" height="100%" viewBox="0 0 171 245" version="1.1" xmlns="http://www.w3.org/2000/svg" xmlns:xlink="http://www.w3.org/1999/xlink" xml:space="preserve" xmlns:serif="http://www.serif.com/" style="fill-rule:evenodd;clip-rule:evenodd;stroke-linecap:round;stroke-linejoin:round;stroke-miterlimit:1.5;">
    <g transform="matrix(1,0,0,1,-533.372,-118.687)">
        <path d="M588.301,273.782C561.278,261.981 542.373,235.012 542.373,203.661C542.373,161.454 576.64,127.186 618.847,127.186C661.055,127.186 695.322,161.454 695.322,203.661C695.322,235.012 676.417,261.981 649.394,273.782L649.394,309.294L588.301,309.294L588.301,273.782Z" style="fill:none;stroke:white;stroke-width:10px;"/>
    </g>
    <g transform="matrix(1,0,0,1,-524.673,-99.2488)">
        <path d="M580.296,307.167L640,307.167" style="fill:none;stroke:white;stroke-width:10px;"/>
    </g>
    <g transform="matrix(0.813953,0,0,1,-411.157,-79.2488)">
        <path d="M580.296,307.167L640,307.167" style="fill:none;stroke:white;stroke-width:10.97px;"/>
    </g>
    <g transform="matrix(0.5,0,0,0.5,-225.053,58.4556)">
        <circle cx="621.056" cy="348.771" r="9.845" style="fill:none;stroke:white;stroke-width:20px;"/>
    </g>
    <g transform="matrix(1,0,0,1,-525.736,-92.6286)">
        <path d="M606.288,243.066L586.913,204.188" style="fill:none;stroke:white;stroke-width:10px;"/>
    </g>
    <g transform="matrix(1,0,0,1,-525.736,-92.6286)">
        <path d="M616.133,243.066L635.509,204.188" style="fill:none;stroke:white;stroke-width:10px;"/>
    </g>
</svg>
